<svg xmlns="http://www.w3.org/2000/svg" width="920" height="225" viewBox="0 0 980 240" font-family="Segoe UI,system-ui,sans-serif">
  <defs><marker id="ar1" markerWidth="8" markerHeight="8" refX="7" refY="3" orient="auto"><path d="M0,0 L7,3 L0,6 Z" fill="#888"/></marker></defs>
  <line x1="492" y1="15" x2="492" y2="225" stroke="#555" stroke-width="2" stroke-dasharray="7 6"/>
  <text x="225" y="28" text-anchor="middle" font-size="21" font-weight="700" fill="#e8e8e8">Chat</text>
  <rect x="25" y="85" width="110" height="48" rx="8" fill="#2a2a2a" stroke="#555"/><text x="80" y="115" text-anchor="middle" font-size="18" fill="#e8e8e8">You</text>
  <rect x="170" y="85" width="125" height="48" rx="8" fill="#2a2a2a" stroke="#555"/><text x="232" y="115" text-anchor="middle" font-size="18" fill="#e8e8e8">Model</text>
  <rect x="330" y="85" width="110" height="48" rx="8" fill="#2a2a2a" stroke="#555"/><text x="385" y="115" text-anchor="middle" font-size="18" fill="#e8e8e8">Answer</text>
  <line x1="137" y1="109" x2="166" y2="109" stroke="#888" stroke-width="2" marker-end="url(#ar1)"/>
  <line x1="297" y1="109" x2="326" y2="109" stroke="#888" stroke-width="2" marker-end="url(#ar1)"/>
  <text x="225" y="185" text-anchor="middle" font-size="15" font-style="italic" fill="#9a9a9a">one question, one answer</text>
  <text x="735" y="28" text-anchor="middle" font-size="21" font-weight="700" fill="#e8e8e8">Agent</text>
  <rect x="525" y="92" width="80" height="44" rx="8" fill="#2a2a2a" stroke="#555"/><text x="565" y="119" text-anchor="middle" font-size="17" fill="#e8e8e8">Goal</text>
  <rect x="620" y="55" width="335" height="152" rx="10" fill="none" stroke="#3b6fc4" stroke-dasharray="6 4"/>
  <text x="640" y="75" font-size="14" fill="#3b6fc4">harness</text>
  <rect x="633" y="92" width="85" height="48" rx="8" fill="#2a2a2a" stroke="#555"/><text x="675" y="121" text-anchor="middle" font-size="17" fill="#e8e8e8">Plan</text>
  <rect x="740" y="92" width="85" height="48" rx="8" fill="#2a2a2a" stroke="#555"/><text x="782" y="121" text-anchor="middle" font-size="17" fill="#e8e8e8">Tools</text>
  <rect x="847" y="92" width="85" height="48" rx="8" fill="#2a2a2a" stroke="#555"/><text x="889" y="121" text-anchor="middle" font-size="17" fill="#e8e8e8">Verify</text>
  <line x1="607" y1="114" x2="629" y2="114" stroke="#888" stroke-width="2" marker-end="url(#ar1)"/>
  <line x1="720" y1="116" x2="736" y2="116" stroke="#888" stroke-width="2" marker-end="url(#ar1)"/>
  <line x1="827" y1="116" x2="843" y2="116" stroke="#888" stroke-width="2" marker-end="url(#ar1)"/>
  <path d="M 889 140 L 889 174 L 675 174 L 675 144" fill="none" stroke="#d29a3a" stroke-width="2" stroke-dasharray="5 4" marker-end="url(#ar1)"/>
  <text x="782" y="192" text-anchor="middle" font-size="14" fill="#d29a3a">iterate until verified</text>
  <text x="735" y="220" text-anchor="middle" font-size="15" font-style="italic" fill="#9a9a9a">goal in, verified result out</text>
</svg>
