<svg xmlns="http://www.w3.org/2000/svg" width="850" height="238" viewBox="0 0 900 238" font-family="Segoe UI,system-ui,sans-serif">
  <defs><marker id="ar1" markerWidth="8" markerHeight="8" refX="7" refY="3" orient="auto"><path d="M0,0 L7,3 L0,6 Z" fill="#888"/></marker></defs>
  <text x="215" y="26" text-anchor="middle" font-size="20" font-weight="700" fill="#e8e8e8">Chat</text>
  <rect x="30" y="80" width="110" height="48" rx="8" fill="#2a2a2a" stroke="#555"/><text x="85" y="110" text-anchor="middle" font-size="18" fill="#e8e8e8">You</text>
  <rect x="180" y="80" width="120" height="48" rx="8" fill="#2a2a2a" stroke="#555"/><text x="240" y="110" text-anchor="middle" font-size="18" fill="#e8e8e8">Model</text>
  <rect x="340" y="80" width="110" height="48" rx="8" fill="#2a2a2a" stroke="#555"/><text x="395" y="110" text-anchor="middle" font-size="18" fill="#e8e8e8">Answer</text>
  <line x1="142" y1="104" x2="176" y2="104" stroke="#888" stroke-width="2" marker-end="url(#ar1)"/>
  <line x1="302" y1="104" x2="336" y2="104" stroke="#888" stroke-width="2" marker-end="url(#ar1)"/>
  <text x="240" y="175" text-anchor="middle" font-size="15" font-style="italic" fill="#9a9a9a">one question, one answer</text>
  <text x="675" y="26" text-anchor="middle" font-size="20" font-weight="700" fill="#e8e8e8">Agent</text>
  <rect x="465" y="90" width="80" height="44" rx="8" fill="#2a2a2a" stroke="#555"/><text x="505" y="117" text-anchor="middle" font-size="17" fill="#e8e8e8">Goal</text>
  <rect x="565" y="55" width="330" height="150" rx="10" fill="none" stroke="#3b6fc4" stroke-dasharray="6 4"/>
  <text x="585" y="75" font-size="14" fill="#3b6fc4">harness</text>
  <rect x="578" y="90" width="85" height="48" rx="8" fill="#2a2a2a" stroke="#555"/><text x="620" y="119" text-anchor="middle" font-size="17" fill="#e8e8e8">Plan</text>
  <rect x="685" y="90" width="85" height="48" rx="8" fill="#2a2a2a" stroke="#555"/><text x="727" y="119" text-anchor="middle" font-size="17" fill="#e8e8e8">Tools</text>
  <rect x="792" y="90" width="85" height="48" rx="8" fill="#2a2a2a" stroke="#555"/><text x="834" y="119" text-anchor="middle" font-size="17" fill="#e8e8e8">Verify</text>
  <line x1="547" y1="112" x2="574" y2="112" stroke="#888" stroke-width="2" marker-end="url(#ar1)"/>
  <line x1="665" y1="114" x2="681" y2="114" stroke="#888" stroke-width="2" marker-end="url(#ar1)"/>
  <line x1="772" y1="114" x2="788" y2="114" stroke="#888" stroke-width="2" marker-end="url(#ar1)"/>
  <path d="M 834 138 L 834 172 L 620 172 L 620 142" fill="none" stroke="#d29a3a" stroke-width="2" stroke-dasharray="5 4" marker-end="url(#ar1)"/>
  <text x="727" y="190" text-anchor="middle" font-size="14" fill="#d29a3a">iterate until verified</text>
  <text x="675" y="218" text-anchor="middle" font-size="15" font-style="italic" fill="#9a9a9a">goal in, verified result out</text>
</svg>
